<?xml version="1.0" standalone="no"?>
<!DOCTYPE svg PUBLIC "-//W3C//DTD SVG 20010904//EN"
 "http://www.w3.org/TR/2001/REC-SVG-20010904/DTD/svg10.dtd">
<svg version="1.0" xmlns="http://www.w3.org/2000/svg"
 width="350.000000pt" height="574.000000pt" viewBox="0 0 350.000000 574.000000"
 preserveAspectRatio="xMidYMid meet">

<g transform="translate(0.000000,574.000000) scale(0.100000,-0.100000)"
fill="#000000" stroke="none">
<path d="M1408 5653 c7 -3 16 -2 19 1 4 3 -2 6 -13 5 -11 0 -14 -3 -6 -6z"/>
<path d="M52 5610 c0 -19 2 -27 5 -17 2 9 2 25 0 35 -3 9 -5 1 -5 -18z"/>
<path d="M53 5495 c0 -27 2 -38 4 -22 2 15 2 37 0 50 -2 12 -4 0 -4 -28z"/>
<path d="M350 5280 c-6 -11 -21 -30 -34 -44 -23 -22 -24 -29 -19 -107 5 -82
14 -109 37 -109 7 0 7 3 1 8 -9 6 -11 36 -6 65 2 13 31 -20 31 -35 0 -10 2
-10 9 1 5 8 7 20 4 27 -7 19 5 34 22 27 8 -3 15 -17 15 -31 0 -14 2 -23 5 -20
3 3 3 43 -1 89 -7 79 -8 82 -20 54 -7 -16 -10 -34 -7 -40 4 -6 1 -6 -5 0 -7 6
-12 39 -13 73 -1 34 -3 62 -5 62 -2 0 -8 -9 -14 -20z m-13 -162 c-3 -8 -6 -5
-6 6 -1 11 2 17 5 13 3 -3 4 -12 1 -19z"/>
<path d="M407 5278 c-6 -21 -2 -36 7 -27 10 11 16 49 8 49 -5 0 -12 -10 -15
-22z"/>
<path d="M874 5256 c-10 -8 -16 -18 -12 -22 4 -4 2 -14 -5 -22 -10 -12 -9 -14
1 -11 11 4 47 69 38 69 -1 0 -11 -6 -22 -14z"/>
<path d="M120 5171 c-13 -25 -13 -61 0 -61 5 0 9 -6 8 -12 -2 -7 3 -12 10 -10
6 1 12 -3 12 -9 0 -5 5 -7 10 -4 6 4 3 17 -10 35 -25 35 -26 67 -2 73 16 4 16
5 0 6 -10 0 -22 -8 -28 -18z"/>
<path d="M740 5174 c0 -11 -6 -14 -21 -9 -18 6 -20 3 -18 -27 2 -18 6 -37 9
-43 14 -21 19 -45 10 -45 -5 0 -12 11 -16 25 -3 14 -10 22 -15 19 -5 -3 -7 -9
-4 -14 9 -15 -19 -50 -35 -45 -9 3 -25 -1 -35 -9 -20 -14 -19 -49 12 -315 l5
-43 19 28 c16 24 18 40 13 97 -8 78 10 95 20 19 5 -38 10 -48 25 -48 13 0 21
9 25 28 6 32 26 38 26 7 0 -13 4 -18 12 -13 7 5 8 3 4 -5 -5 -7 -14 -10 -21
-7 -15 5 -8 -31 9 -51 6 -7 17 -19 24 -28 11 -13 31 -134 33 -195 1 -37 11
-69 22 -67 18 3 25 -66 8 -79 -17 -13 -7 -79 17 -112 l18 -23 -1 23 c0 13 -6
33 -13 46 -7 13 -11 31 -9 40 3 12 5 11 6 -5 0 -13 4 -23 9 -23 4 0 6 98 4
218 -4 249 0 287 34 337 29 44 30 51 4 58 -15 4 -20 0 -20 -13 0 -10 -4 -20
-10 -22 -5 -1 -13 -32 -16 -68 -9 -85 -23 -112 -24 -45 l-2 50 -14 -35 -14
-35 4 38 c5 38 -1 46 -22 25 -9 -9 -12 -5 -12 20 0 18 0 35 -1 39 -2 21 20 10
30 -14 l10 -28 -2 26 c-1 14 4 33 11 42 8 9 11 21 7 27 -10 16 -45 12 -45 -5
0 -8 -7 -15 -15 -15 -22 0 -18 28 5 35 20 6 27 29 11 39 -5 3 -9 16 -9 28 0
13 -5 42 -11 66 -7 23 -9 47 -6 52 7 12 -16 70 -27 70 -5 0 -8 -7 -8 -16z
m-50 -230 c0 -8 -5 -12 -10 -9 -6 4 -8 11 -5 16 9 14 15 11 15 -7z m151 -370
c-5 -16 -10 -21 -10 -12 -1 18 10 51 15 45 2 -1 -1 -16 -5 -33z"/>
<path d="M1890 5150 c-94 -13 -250 -60 -316 -97 -147 -81 -251 -255 -261 -438
-4 -75 -2 -83 26 -131 22 -38 44 -59 83 -81 100 -57 250 -93 301 -74 22 9 27
17 27 44 0 27 -7 37 -42 60 -23 15 -47 27 -54 27 -7 0 -41 29 -76 63 -35 35
-73 71 -86 79 -18 12 -23 25 -24 64 -1 43 3 51 33 77 94 80 183 147 198 147 9
0 35 13 59 29 40 28 48 30 136 28 83 -2 97 -5 134 -30 23 -15 52 -43 65 -62
12 -19 27 -35 33 -35 6 0 30 -16 53 -36 38 -34 41 -40 36 -73 -12 -74 -17 -84
-59 -127 -24 -24 -40 -47 -34 -50 5 -3 29 -3 54 1 51 7 88 41 134 120 35 62
63 168 57 216 -3 20 -17 64 -32 98 -47 105 -125 156 -270 177 -97 15 -94 15
-175 4z"/>
<path d="M835 5107 c-21 -18 -25 -28 -20 -50 4 -15 10 -27 14 -27 7 0 51 80
51 93 0 13 -19 7 -45 -16z"/>
<path d="M655 5109 c-12 -19 5 -23 22 -6 16 16 16 17 1 17 -9 0 -20 -5 -23
-11z"/>
<path d="M401 5034 c0 -11 3 -14 6 -6 3 7 2 16 -1 19 -3 4 -6 -2 -5 -13z"/>
<path d="M1833 4845 c-18 -8 -33 -11 -33 -8 0 3 -6 0 -14 -6 -17 -14 -40 -75
-26 -66 6 4 10 12 10 20 0 14 21 25 50 25 11 0 23 7 28 16 6 11 30 19 68 24
l59 7 -55 1 c-30 1 -70 -5 -87 -13z"/>
<path d="M2070 4776 c0 -9 5 -16 10 -16 6 0 10 4 10 9 0 6 -4 13 -10 16 -5 3
-10 -1 -10 -9z"/>
<path d="M1845 4760 c3 -5 16 -10 28 -10 16 0 18 -3 8 -9 -7 -5 -21 -7 -30 -4
-9 2 -25 -3 -36 -11 -19 -15 -18 -15 13 -10 25 5 32 3 32 -10 0 -15 29 -24 31
-8 0 4 2 17 3 30 2 14 -4 27 -15 33 -23 12 -42 12 -34 -1z"/>
<path d="M1724 4665 c-3 -25 -1 -56 5 -72 10 -25 11 -25 6 -3 -8 41 6 99 24
102 12 3 10 5 -6 10 -20 5 -23 1 -29 -37z"/>
<path d="M1980 4699 c0 -5 5 -7 10 -4 6 3 10 8 10 11 0 2 -4 4 -10 4 -5 0 -10
-5 -10 -11z"/>
<path d="M2033 4687 c26 -27 42 -25 27 4 -6 10 -19 19 -30 19 -18 0 -18 -1 3
-23z"/>
<path d="M2087 4677 c-11 -29 -9 -43 4 -30 6 6 9 19 7 29 -3 18 -4 18 -11 1z"/>
<path d="M1900 4610 c20 -13 47 -13 55 0 4 6 -9 10 -32 10 -28 0 -34 -3 -23
-10z"/>
<path d="M1848 4563 c7 -3 16 -2 19 1 4 3 -2 6 -13 5 -11 0 -14 -3 -6 -6z"/>
<path d="M1950 4550 c0 -5 7 -10 16 -10 8 0 12 5 9 10 -3 6 -10 10 -16 10 -5
0 -9 -4 -9 -10z"/>
<path d="M793 4515 c0 -22 2 -30 4 -17 2 12 2 30 0 40 -3 9 -5 -1 -4 -23z"/>
<path d="M1911 4451 c-10 -7 -5 -11 17 -16 32 -7 52 -1 52 16 0 11 -50 12 -69
0z"/>
<path d="M1940 4402 c0 -12 19 -26 26 -19 2 2 -2 10 -11 17 -9 8 -15 8 -15 2z"/>
<path d="M1854 4366 c-16 -18 -27 -56 -16 -56 7 0 16 14 40 63 6 12 -12 7 -24
-7z"/>
<path d="M1975 4370 c-3 -5 -3 -15 1 -21 5 -9 -1 -10 -20 -5 -21 5 -27 3 -24
-6 3 -7 14 -13 25 -14 12 -1 34 -13 49 -28 16 -14 32 -26 36 -26 13 0 9 18 -4
24 -7 3 1 3 17 -1 27 -5 26 -2 -17 27 -27 17 -48 36 -48 42 0 5 5 6 12 2 7 -4
8 -3 4 4 -9 15 -23 15 -31 2z"/>
<path d="M1600 4271 c-56 -36 -64 -49 -92 -153 -26 -100 -28 -236 -4 -346 15
-70 22 -222 10 -222 -3 0 -24 16 -47 35 -23 20 -53 38 -67 42 -14 3 -30 10
-37 15 -8 7 -11 4 -10 -11 1 -12 5 -21 9 -21 4 0 8 -4 8 -9 0 -15 -30 -21 -51
-10 -11 5 -54 12 -97 15 -91 5 -179 13 -207 19 -12 3 -31 23 -44 45 -28 51
-45 53 -21 2 13 -27 17 -50 13 -80 -7 -51 -23 -66 -21 -20 1 42 -11 98 -22 98
-4 0 -3 -18 2 -40 6 -23 7 -55 2 -77 -4 -21 -8 -43 -7 -50 0 -7 -4 -11 -10
-10 -6 1 -13 -7 -15 -18 -6 -31 -55 -92 -69 -88 -8 3 -13 -4 -13 -15 0 -11 -3
-29 -6 -39 -5 -15 -4 -15 5 -3 9 13 11 13 11 -1 0 -34 -29 -29 -56 9 l-27 37
-75 -3 c-61 -3 -78 -1 -88 12 -10 15 -12 15 -18 1 -9 -23 -24 -18 -22 9 1 16
6 22 16 18 8 -3 12 -2 8 3 -12 13 19 61 64 99 29 26 58 39 100 48 55 11 57 13
41 31 -12 13 -24 16 -43 12 -14 -4 -50 -8 -81 -10 -57 -3 -99 -18 -99 -35 0
-6 6 -10 13 -10 6 0 1 -9 -13 -20 l-25 -20 28 10 c34 12 34 4 1 -31 -35 -37
-54 -111 -41 -156 7 -21 15 -32 24 -29 7 3 13 2 13 -3 0 -13 -42 -21 -68 -14
-12 3 -22 1 -22 -3 0 -12 67 -58 94 -64 24 -7 38 -55 23 -84 -5 -11 -5 -22 1
-28 11 -11 3 -58 -10 -58 -5 0 -8 -12 -5 -27 2 -16 2 -23 0 -16 -2 6 -10 14
-17 16 -15 6 -10 -29 5 -38 4 -3 6 -11 3 -18 -2 -7 5 -22 16 -32 21 -19 21
-19 14 10 -9 38 -4 33 32 -35 27 -50 29 -60 21 -103 -7 -33 -6 -55 2 -70 11
-21 11 -21 6 5 -3 15 0 28 7 30 6 2 12 25 12 54 0 37 -7 64 -32 111 -17 34
-32 67 -32 72 0 15 28 28 79 36 52 9 49 -8 -5 -31 -21 -9 -34 -21 -34 -32 1
-15 2 -15 15 2 20 26 19 12 0 -18 -17 -26 -9 -39 33 -49 21 -5 23 -3 18 19 -4
14 -2 24 4 24 6 0 8 5 5 10 -7 12 12 40 27 40 6 0 7 -11 4 -25 -5 -18 -2 -27
9 -31 8 -3 12 -10 9 -15 -3 -5 0 -9 5 -9 6 0 11 7 11 15 0 8 4 15 9 15 4 0 11
-25 14 -57 3 -31 11 -59 18 -64 7 -4 9 -14 6 -23 -7 -18 28 -162 44 -182 5 -7
9 -18 8 -26 -4 -33 3 -54 22 -67 19 -11 21 -11 16 3 -7 18 8 22 19 4 4 -6 -2
-18 -13 -28 -26 -20 -48 -60 -33 -60 5 0 10 6 10 13 0 23 33 46 78 53 23 4 42
10 42 14 0 11 -23 27 -44 31 -37 7 -27 25 11 23 21 -2 28 0 16 2 -25 6 -32 34
-9 34 12 0 22 -13 31 -40 10 -28 19 -38 31 -33 8 3 14 0 14 -6 0 -6 5 -11 11
-11 6 0 9 9 6 20 -3 13 0 20 9 20 8 0 14 6 14 14 0 8 20 19 48 26 26 7 52 16
57 20 17 11 171 70 184 70 7 0 10 4 7 9 -4 5 4 7 16 3 17 -4 20 -2 15 12 -4
10 -3 15 3 11 6 -3 10 -1 10 6 0 7 3 10 6 7 9 -10 -15 -48 -30 -48 -8 0 -21
-11 -30 -25 -22 -33 -57 -65 -72 -65 -7 0 -29 -11 -49 -24 l-36 -25 33 -3 32
-3 -41 -20 c-23 -11 -39 -23 -37 -27 5 -8 22 -3 82 23 23 11 51 21 62 22 26 4
93 68 151 143 24 32 64 77 87 101 24 23 41 47 37 52 -4 7 0 8 11 4 12 -4 15
-3 10 6 -8 13 10 41 26 41 5 0 7 -12 4 -27 -12 -62 -18 -178 -8 -168 21 23 35
118 37 256 1 80 7 161 13 180 18 53 42 199 41 249 l-1 45 -16 -52 c-10 -28
-20 -55 -25 -59 -4 -4 -7 47 -6 115 0 67 -2 125 -5 128 -3 4 -7 -16 -7 -43 -3
-101 -8 -160 -16 -202 l-8 -43 -26 54 c-24 49 -25 57 -14 101 7 25 23 58 35
71 13 14 19 25 13 25 -6 0 -16 -7 -23 -15 -20 -24 -30 -18 -20 11 6 14 8 29 5
34 -3 5 -1 12 5 15 6 4 10 14 9 23 -3 33 1 40 36 56 19 9 35 20 35 24 0 4 17
6 38 5 20 -2 49 -4 65 -4 15 -1 27 -5 27 -10 0 -4 8 -5 19 -2 20 5 81 -22 81
-37 0 -17 -18 -20 -24 -3 -6 14 -8 14 -21 -3 -14 -18 -15 -17 -10 10 2 17 1
25 -5 20 -4 -5 -10 -20 -12 -34 l-4 -25 -12 28 c-15 35 -43 33 -53 -3 l-6 -25
-4 25 c-4 23 -6 21 -25 -20 -25 -52 -23 -60 14 -60 15 0 59 -12 99 -26 58 -21
83 -37 125 -81 116 -120 152 -153 168 -153 9 0 20 -4 26 -9 15 -15 58 -25 50
-12 -4 6 -15 11 -24 11 -19 0 -69 36 -62 43 11 11 128 17 151 9 14 -6 34 -6
47 -1 15 6 21 5 17 -1 -3 -6 0 -10 8 -10 8 0 17 6 20 14 3 7 26 23 50 35 32
15 47 30 52 49 4 15 10 29 15 32 4 3 6 17 3 32 -3 15 -9 25 -13 23 -5 -3 -21
6 -36 20 -24 22 -25 25 -7 25 10 0 24 -5 31 -12 8 -8 15 -9 23 -1 13 13 -46
43 -85 43 l-26 0 0 108 c-2 435 -14 486 -129 529 -25 9 -48 20 -51 23 -18 21
-66 50 -83 50 -19 0 -19 -1 -4 -18 22 -25 22 -100 0 -132 -33 -48 -91 -96
-129 -107 -116 -34 -180 -25 -259 35 -55 41 -104 122 -114 186 -3 22 -10 41
-16 42 -5 2 -30 -9 -55 -25z m41 -34 c-8 -8 -11 -7 -11 4 0 20 13 34 18 19 3
-7 -1 -17 -7 -23z m-61 -107 c0 -5 -5 -10 -11 -10 -5 0 -7 5 -4 10 3 6 8 10
11 10 2 0 4 -4 4 -10z m640 2 c0 -18 -33 -52 -51 -52 -20 0 -20 0 1 30 20 27
50 41 50 22z m-663 -109 c-6 -29 -14 -53 -18 -53 -8 0 -4 95 6 110 16 25 22
-8 12 -57z m221 8 c3 -8 -1 -12 -9 -9 -7 2 -15 10 -17 17 -3 8 1 12 9 9 7 -2
15 -10 17 -17z m551 -135 l-1 -31 -13 30 c-8 17 -14 39 -14 50 0 20 0 20 14 1
8 -11 15 -34 14 -50z m-753 -209 c-3 -18 -5 -38 -5 -44 -1 -7 -5 -13 -11 -13
-11 0 -14 59 -4 84 10 26 24 7 20 -27z m791 -59 c-3 -8 -6 -5 -6 6 -1 11 2 17
5 13 3 -3 4 -12 1 -19z m-333 -43 c3 -9 0 -15 -9 -15 -8 0 -15 7 -15 15 0 8 4
15 9 15 5 0 11 -7 15 -15z m-1394 -4 c0 -5 -18 -11 -40 -13 -42 -4 -42 7 0 15
14 2 28 5 33 6 4 0 7 -3 7 -8z m590 -1 c0 -5 -2 -10 -4 -10 -3 0 -8 5 -11 10
-3 6 -1 10 4 10 6 0 11 -4 11 -10z m-180 -9 c0 -6 15 -7 34 -4 56 9 186 -62
186 -102 0 -7 16 -20 35 -29 36 -17 54 -36 34 -36 -8 0 -9 -11 -3 -37 4 -21 7
-49 7 -63 0 -24 0 -24 13 5 19 42 17 90 -6 163 -25 78 -25 82 -2 82 24 0 44
-23 71 -79 23 -49 26 -72 12 -87 -6 -5 -12 -40 -15 -78 -3 -39 -10 -74 -16
-80 -5 -5 -10 -14 -10 -20 0 -20 37 31 49 67 7 20 17 39 22 43 5 3 7 26 3 54
-4 28 -2 55 5 66 8 15 11 16 12 4 2 -26 5 -34 22 -72 21 -46 21 -89 2 -165 -8
-32 -16 -75 -17 -95 -2 -21 -6 -38 -10 -38 -14 0 -9 -18 6 -23 20 -8 53 42 35
53 -10 7 -10 27 2 107 8 54 12 115 8 136 -3 20 -2 37 2 37 15 0 30 -69 31
-154 2 -64 5 -81 12 -64 7 19 10 20 13 6 2 -9 -8 -39 -22 -66 -19 -36 -27 -68
-29 -122 -4 -61 -8 -76 -30 -99 -15 -15 -23 -30 -20 -34 3 -3 -3 -19 -15 -35
-35 -50 -203 -140 -299 -161 -85 -18 -110 -14 -144 19 -31 32 -51 39 -42 16 3
-8 -3 -16 -15 -19 -13 -3 -21 0 -21 8 0 7 -10 25 -22 41 -20 24 -52 123 -43
132 1 2 16 -21 33 -50 39 -66 60 -93 67 -86 3 3 -3 21 -14 41 -11 19 -18 37
-16 39 2 2 -2 22 -10 43 -25 70 -18 85 15 35 16 -25 30 -50 30 -55 0 -6 13
-26 29 -45 l30 -35 -12 36 c-7 20 -19 44 -26 53 -7 9 -11 23 -7 31 3 9 0 15
-9 15 -16 0 -47 63 -34 68 4 2 -1 12 -13 24 -15 15 -18 27 -13 46 8 32 16 165
9 140 -3 -10 -10 -18 -15 -18 -5 0 -9 -8 -9 -17 0 -33 -14 -1 -15 35 -2 49
-15 102 -25 102 -5 0 -16 20 -25 44 -16 41 -16 45 0 70 10 15 23 25 29 23 17
-6 56 58 56 93 0 23 6 33 25 42 14 6 25 15 25 20 0 4 5 8 10 8 19 0 10 -49
-15 -86 -14 -20 -25 -43 -25 -50 0 -7 -9 -29 -20 -49 -24 -42 -26 -128 -5
-165 l14 -25 2 30 c1 17 0 39 -1 50 -7 47 -5 60 9 57 8 -2 11 3 8 13 -4 8 -2
15 3 15 6 0 10 9 10 20 0 12 7 20 18 20 14 0 14 2 3 9 -12 8 -12 12 2 25 8 9
17 12 19 6 2 -6 9 -6 18 0 13 8 13 11 -2 26 -15 15 -15 20 -2 55 12 29 13 42
4 58 -7 14 -7 21 0 21 5 0 10 -4 10 -9z m220 -10 c0 -11 -31 -24 -39 -16 -3 3
1 10 9 15 19 12 30 12 30 1z m57 3 c-3 -3 -12 -4 -19 -1 -8 3 -5 6 6 6 11 1
17 -2 13 -5z m628 -24 c-3 -5 -10 -10 -16 -10 -5 0 -9 5 -9 10 0 6 7 10 16 10
8 0 12 -4 9 -10z m223 -124 c25 -8 30 -26 7 -26 -8 0 -37 21 -65 48 -27 26
-54 46 -61 43 -8 -2 -8 2 2 12 13 14 18 11 54 -27 22 -24 50 -47 63 -50z m279
-11 c0 -8 -9 -23 -20 -32 -20 -18 -20 -18 -3 15 18 36 23 39 23 17z m-1493
-40 c-4 -8 -8 -15 -10 -15 -2 0 -4 7 -4 15 0 8 4 15 10 15 5 0 7 -7 4 -15z
m-266 -11 c12 -4 22 -14 22 -23 0 -13 -13 -16 -75 -18 -91 -3 -103 18 -21 38
42 9 47 10 74 3z m-19 -80 c13 8 23 -8 16 -27 -5 -10 -19 -13 -58 -10 -61 5
-121 22 -112 31 11 11 119 18 132 9 7 -5 17 -6 22 -3z m151 -74 c0 -21 -20
-28 -20 -7 -1 7 -7 4 -15 -7 -11 -15 -17 -17 -29 -7 -17 15 -10 49 13 54 25 5
51 -11 51 -33z m-130 -19 c0 -5 8 -11 17 -13 24 -4 -53 -54 -95 -60 -34 -5
-39 0 -19 21 8 8 8 11 1 9 -7 -2 -13 1 -14 6 0 5 21 17 47 26 60 22 63 22 63
11z m155 -80 c3 -5 1 -12 -4 -15 -5 -3 -11 1 -15 9 -6 16 9 21 19 6z m733 -53
c-5 -28 -4 -29 9 -13 21 30 15 -4 -8 -41 -11 -19 -22 -34 -24 -34 -8 0 -3 67
7 93 14 36 21 34 16 -5z m-741 -35 c-3 -10 -5 -4 -5 12 0 17 2 24 5 18 2 -7 2
-21 0 -30z m12 -116 c6 -31 7 -67 2 -79 -6 -17 -10 -11 -24 38 -15 56 -13 124
3 107 5 -4 13 -34 19 -66z m714 -61 c-10 -13 -22 -22 -26 -19 -9 6 21 43 35
43 5 0 1 -11 -9 -24z m-23 -39 c0 -2 -12 -14 -27 -28 l-28 -24 24 28 c23 25
31 32 31 24z m-642 -79 c29 -29 5 -62 -37 -51 -20 5 -29 41 -14 56 10 11 38 8
51 -5z m37 -98 c3 -5 -1 -10 -10 -10 -9 0 -13 5 -10 10 3 6 8 10 10 10 2 0 7
-4 10 -10z"/>
<path d="M871 3356 c-9 -10 -8 -16 4 -26 13 -11 15 -8 15 14 0 30 -3 32 -19
12z"/>
<path d="M1277 3140 c-9 -11 -12 -20 -6 -20 11 0 39 25 39 34 0 12 -16 5 -33
-14z"/>
<path d="M1461 3000 c-5 -16 -8 -30 -6 -30 11 0 54 48 48 53 -14 15 -32 5 -42
-23z"/>
<path d="M1500 2930 c0 -5 5 -10 10 -10 6 0 10 5 10 10 0 6 -4 10 -10 10 -5 0
-10 -4 -10 -10z"/>
<path d="M1394 2895 c-24 -37 -10 -42 16 -6 12 17 17 31 11 31 -6 0 -18 -11
-27 -25z"/>
<path d="M890 2701 c0 -5 5 -13 10 -16 6 -3 10 -2 10 4 0 5 -4 13 -10 16 -5 3
-10 2 -10 -4z"/>
<path d="M2118 4283 c7 -3 16 -2 19 1 4 3 -2 6 -13 5 -11 0 -14 -3 -6 -6z"/>
<path d="M2056 4225 c4 -25 1 -43 -10 -60 -20 -30 -20 -36 -1 -29 22 9 30 42
26 109 -1 8 -6 15 -11 15 -7 0 -8 -13 -4 -35z"/>
<path d="M2091 4188 c-5 -13 -7 -25 -4 -28 5 -6 33 30 33 42 0 17 -21 7 -29
-14z"/>
<path d="M3382 4170 c0 -14 2 -19 5 -12 2 6 2 18 0 25 -3 6 -5 1 -5 -13z"/>
<path d="M3381 4054 c0 -11 3 -14 6 -6 3 7 2 16 -1 19 -3 4 -6 -2 -5 -13z"/>
<path d="M921 3994 c0 -11 3 -14 6 -6 3 7 2 16 -1 19 -3 4 -6 -2 -5 -13z"/>
<path d="M604 3959 c-3 -6 -1 -16 5 -22 8 -8 11 -5 11 11 0 24 -5 28 -16 11z"/>
<path d="M780 3924 c-13 -32 -13 -54 0 -34 7 12 11 10 18 -9 7 -20 10 -21 15
-7 8 21 -2 76 -14 76 -5 0 -14 -12 -19 -26z"/>
<path d="M927 3933 c-3 -5 -1 -17 4 -28 7 -19 8 -19 8 -1 1 25 7 18 15 -19 4
-20 3 -25 -3 -16 -11 17 -41 7 -41 -14 0 -24 48 -68 67 -61 8 4 22 1 29 -5 11
-9 14 -8 14 4 0 9 -8 21 -17 26 -10 6 -14 11 -9 11 5 0 2 7 -5 16 -7 9 -14 25
-16 36 -7 42 -34 72 -46 51z"/>
<path d="M451 3904 c0 -11 3 -14 6 -6 3 7 2 16 -1 19 -3 4 -6 -2 -5 -13z"/>
<path d="M893 3914 c-7 -3 -9 -12 -6 -20 8 -21 19 -17 19 6 0 11 0 20 -1 19 0
0 -5 -3 -12 -5z"/>
<path d="M578 3881 c-10 -10 -18 -24 -18 -32 0 -12 2 -11 10 1 9 13 11 13 20
0 8 -13 10 -13 10 2 0 9 5 18 12 20 6 2 8 10 4 16 -10 16 -17 14 -38 -7z"/>
<path d="M655 3870 c-3 -5 -1 -10 4 -10 6 0 11 5 11 10 0 6 -2 10 -4 10 -3 0
-8 -4 -11 -10z"/>
<path d="M641 3458 c-1 -10 -5 -18 -10 -18 -5 0 -17 -7 -25 -16 -43 -43 11
-47 57 -4 29 28 30 30 10 30 -12 0 -24 6 -26 13 -3 7 -6 5 -6 -5z"/>
<path d="M480 3411 c-12 -24 -13 -44 -1 -37 8 5 22 56 15 56 -2 0 -8 -9 -14
-19z"/>
<path d="M3392 3390 c0 -14 2 -19 5 -12 2 6 2 18 0 25 -3 6 -5 1 -5 -13z"/>
<path d="M2520 3360 c-14 -10 -22 -21 -19 -25 3 -3 17 3 30 14 31 25 21 35
-11 11z"/>
<path d="M2597 3362 c1 -8 3 -20 3 -28 0 -8 5 -14 10 -14 6 0 10 12 10 26 0
14 -4 23 -9 20 -5 -4 -11 -3 -14 1 -2 5 -2 2 0 -5z"/>
<path d="M3313 3343 c9 -9 20 -13 24 -9 4 4 1 11 -7 16 -25 16 -35 11 -17 -7z"/>
<path d="M1992 3330 c14 -22 24 -19 15 5 -4 8 -11 15 -17 15 -6 0 -6 -7 2 -20z"/>
<path d="M2802 3299 c-94 -10 -157 -35 -129 -51 9 -5 17 -14 17 -20 0 -7 -5
-6 -15 2 -13 10 -15 9 -17 -11 -5 -70 -4 -109 4 -109 4 0 8 22 8 50 0 38 3 48
14 44 8 -3 21 4 29 16 8 12 20 18 29 15 9 -4 18 1 22 11 5 13 14 15 39 10 30
-5 31 -5 13 9 -19 14 -19 15 6 15 15 0 29 -6 32 -12 3 -9 9 -8 20 6 12 15 25
17 75 13 34 -2 61 -1 61 3 0 7 -79 21 -109 19 -9 -1 -53 -6 -99 -10z"/>
<path d="M3381 3258 c2 -88 17 -115 18 -31 1 39 -3 75 -9 78 -6 4 -10 -14 -9
-47z"/>
<path d="M2290 3280 c0 -17 5 -21 28 -18 16 2 27 9 27 18 0 9 -11 16 -27 18
-23 3 -28 -1 -28 -18z"/>
<path d="M3026 3285 c4 -8 17 -15 30 -15 14 0 24 -6 24 -14 0 -8 13 -17 28
-21 16 -3 45 -26 67 -52 22 -25 52 -59 67 -75 30 -33 37 -60 35 -139 -1 -38
-8 -63 -19 -76 -10 -11 -18 -25 -18 -32 0 -7 -6 -11 -15 -8 -21 9 -60 -26 -52
-46 9 -23 27 -21 27 3 0 11 7 20 15 20 19 0 19 -7 0 -27 -8 -8 -12 -19 -9 -25
5 -7 2 -8 -6 -3 -10 6 -12 4 -7 -7 3 -10 -4 -25 -19 -39 -13 -12 -26 -30 -29
-40 -7 -20 -58 -49 -87 -49 -10 0 -18 -4 -18 -10 0 -5 8 -7 18 -5 9 3 4 -1
-13 -9 -16 -8 -36 -15 -42 -16 -7 0 -13 -6 -13 -12 0 -7 -5 -5 -11 5 -6 9 -15
15 -20 11 -5 -3 -9 -2 -8 3 3 20 -2 33 -14 33 -7 0 -18 9 -25 20 -7 11 -18 20
-26 20 -7 0 -19 14 -26 30 -16 40 -28 46 -26 15 0 -14 3 -25 6 -25 3 0 34 -36
70 -80 62 -76 66 -79 87 -65 12 8 29 15 38 15 8 0 15 5 15 11 0 5 4 8 9 5 8
-5 105 29 153 55 10 5 24 6 33 3 10 -4 15 0 15 11 0 9 5 13 10 10 11 -7 63 43
90 88 25 40 29 20 26 -127 -3 -101 -7 -134 -22 -161 -19 -35 -34 -45 -34 -23
0 6 6 19 14 27 8 9 17 30 21 46 6 29 6 29 -9 10 -41 -53 -133 -153 -148 -161
-9 -5 -51 -34 -94 -64 -51 -36 -72 -56 -61 -58 9 -2 17 -8 17 -13 0 -5 12 -7
28 -4 l27 5 -30 -14 c-16 -8 -30 -18 -30 -23 -1 -17 -21 -40 -60 -69 -22 -16
-48 -38 -57 -49 l-17 -20 -1 20 c-1 19 -2 19 -12 -2 -13 -26 -28 -30 -28 -8 0
18 -19 20 -21 3 -1 -7 -1 -16 -1 -19 1 -3 -15 -6 -36 -5 -29 1 -37 -3 -40 -19
-3 -17 -1 -17 8 -5 9 13 12 13 24 -2 7 -10 18 -18 25 -18 6 0 11 -4 11 -10 0
-5 5 -10 11 -10 14 0 59 -47 59 -61 0 -5 4 -9 10 -9 5 0 21 -17 35 -37 31 -47
31 -40 0 43 -14 36 -25 73 -25 82 0 15 96 112 111 112 5 0 9 6 9 14 0 7 32 27
72 45 l71 31 52 -55 c39 -43 55 -54 70 -49 12 5 16 4 11 -4 -8 -13 12 -54 44
-92 l21 -25 -5 104 c-3 57 -8 106 -11 109 -3 3 -5 -5 -5 -17 0 -20 -5 -18 -50
21 -27 24 -50 48 -50 54 0 5 13 28 29 50 16 21 37 59 47 84 17 42 19 43 25 20
4 -14 7 128 6 315 0 187 -3 294 -6 238 -3 -56 -9 -105 -13 -109 -5 -4 -8 -1
-8 7 -1 8 -7 1 -15 -16 l-13 -30 -1 27 c-1 15 6 47 14 71 29 85 6 148 -80 225
-16 15 -49 46 -73 69 -24 23 -72 56 -106 73 -73 34 -77 35 -70 15z m354 -485
c0 -5 -5 -10 -11 -10 -5 0 -7 5 -4 10 3 6 8 10 11 10 2 0 4 -4 4 -10z m-27
-642 c19 -14 27 -28 27 -49 0 -16 -5 -29 -11 -29 -5 0 -7 5 -4 11 9 14 -24 38
-55 39 -14 1 -19 4 -13 7 9 3 8 11 -4 30 -17 25 -17 26 7 18 14 -4 37 -16 53
-27z"/>
<path d="M2584 3276 c-6 -7 -17 -22 -23 -34 -10 -18 -9 -22 4 -22 9 0 18 8 21
18 3 9 10 25 15 35 11 20 -1 22 -17 3z"/>
<path d="M292 3229 c-18 -5 -30 -14 -27 -20 4 -5 11 -6 17 -3 6 4 14 0 19 -7
14 -22 11 -29 -13 -29 -13 0 -43 -7 -68 -14 -48 -15 -43 -20 25 -30 22 -3 41
-10 43 -14 1 -5 17 -6 35 -3 28 6 32 11 33 41 2 50 -7 90 -20 89 -6 0 -26 -5
-44 -10z"/>
<path d="M2130 3216 c0 -2 7 -7 16 -10 8 -3 12 -2 9 4 -6 10 -25 14 -25 6z"/>
<path d="M2123 3163 c-18 -7 -16 -28 3 -43 13 -11 16 -10 21 9 4 17 8 19 14 9
7 -10 9 -11 9 0 0 7 5 10 10 7 6 -3 10 -1 10 4 0 6 -6 11 -14 11 -8 0 -20 2
-28 4 -7 3 -19 2 -25 -1z m17 -17 c0 -3 -4 -8 -10 -11 -5 -3 -10 -1 -10 4 0 6
5 11 10 11 6 0 10 -2 10 -4z"/>
<path d="M2680 3148 c0 -7 5 -20 10 -28 8 -12 10 -9 10 13 0 15 -4 27 -10 27
-5 0 -10 -6 -10 -12z"/>
<path d="M1756 3073 c4 -21 9 -42 12 -48 3 -5 7 -20 8 -33 4 -32 14 -41 14
-13 0 26 -29 131 -36 131 -3 0 -2 -17 2 -37z"/>
<path d="M396 3062 c-3 -9 -5 -37 -4 -62 0 -25 -1 -49 -2 -55 -1 -5 -2 -25 -1
-43 1 -29 4 -32 25 -26 19 4 28 -1 45 -25 13 -17 27 -31 33 -31 7 0 5 7 -4 18
-24 29 -37 68 -27 83 7 12 9 12 9 0 0 -9 8 -12 28 -8 33 7 64 -8 44 -21 -15
-10 -6 -38 15 -46 22 -9 23 -6 8 39 -14 42 -86 115 -112 115 -9 0 -13 6 -10
14 3 8 -5 26 -18 40 -21 23 -24 24 -29 8z m47 -138 c-3 -8 -9 -14 -13 -14 -14
0 -22 20 -16 37 5 12 9 13 21 3 7 -6 11 -18 8 -26z"/>
<path d="M2702 3050 c0 -14 2 -19 5 -12 2 6 2 18 0 25 -3 6 -5 1 -5 -13z"/>
<path d="M2794 2929 c-3 -6 -1 -16 5 -22 8 -8 11 -5 11 11 0 24 -5 28 -16 11z"/>
<path d="M3230 2924 c0 -8 5 -12 10 -9 6 3 10 10 10 16 0 5 -4 9 -10 9 -5 0
-10 -7 -10 -16z"/>
<path d="M2776 2875 c3 -22 10 -47 15 -55 13 -21 5 37 -10 70 -10 22 -11 20
-5 -15z"/>
<path d="M1790 2890 c0 -5 5 -10 11 -10 5 0 7 5 4 10 -3 6 -8 10 -11 10 -2 0
-4 -4 -4 -10z"/>
<path d="M495 2801 c-3 -6 1 -19 10 -28 9 -9 21 -27 26 -41 5 -14 12 -22 15
-19 3 3 -6 26 -19 52 -14 25 -28 41 -32 36z"/>
<path d="M716 2791 c-4 -6 -3 -11 2 -11 5 0 6 -14 4 -31 -4 -24 -1 -30 9 -27
9 3 13 16 11 34 -4 34 -17 51 -26 35z"/>
<path d="M790 2752 c0 -47 8 -72 22 -72 6 0 8 11 4 28 -3 15 -8 37 -10 50 -6
40 -16 37 -16 -6z"/>
<path d="M3353 2705 c-7 -8 -13 -17 -13 -20 0 -4 -27 -32 -60 -64 -49 -47 -58
-59 -48 -70 11 -12 10 -13 -6 -7 -10 3 -25 1 -32 -5 -15 -13 -19 -49 -5 -49
18 0 62 28 81 53 l20 25 -23 -5 c-22 -5 -22 -5 -2 10 11 9 26 17 33 17 6 0 12
6 12 13 0 6 13 19 29 28 17 10 30 28 34 45 7 34 -3 48 -20 29z"/>
<path d="M571 2665 c28 -51 29 -51 29 -34 0 8 -12 28 -26 44 l-26 30 23 -40z"/>
<path d="M3145 2550 c3 -5 8 -10 11 -10 2 0 4 5 4 10 0 6 -5 10 -11 10 -5 0
-7 -4 -4 -10z"/>
<path d="M1050 2529 c0 -5 9 -14 19 -21 11 -8 27 -34 37 -58 10 -25 27 -58 38
-75 12 -16 22 -32 23 -34 2 -2 6 -2 9 2 3 3 -3 33 -15 66 -26 77 -26 79 4 87
34 9 31 21 -7 30 -45 10 -108 12 -108 3z"/>
<path d="M776 2501 c-9 -10 -14 -25 -10 -35 9 -23 24 -20 24 5 0 17 5 20 25
17 19 -4 25 -1 25 13 0 25 -41 25 -64 0z"/>
<path d="M1046 2498 c-34 -109 -38 -130 -28 -140 9 -9 12 -5 12 18 0 16 6 38
14 49 17 26 26 74 15 81 -5 3 -11 -1 -13 -8z"/>
<path d="M690 2491 c0 -13 28 -33 41 -29 6 2 0 12 -15 21 -14 10 -26 13 -26 8z"/>
<path d="M3058 2443 c7 -3 16 -2 19 1 4 3 -2 6 -13 5 -11 0 -14 -3 -6 -6z"/>
<path d="M3391 2354 c0 -11 3 -14 6 -6 3 7 2 16 -1 19 -3 4 -6 -2 -5 -13z"/>
<path d="M1036 2313 c4 -16 15 -47 25 -70 24 -53 24 -78 0 -111 -10 -15 -23
-38 -30 -52 -10 -21 -9 -22 1 -7 7 10 18 25 23 33 6 8 25 18 43 23 31 9 32 9
26 -16 -6 -23 -5 -25 17 -18 22 7 23 7 9 -11 -8 -10 -18 -21 -22 -24 -4 -4
-11 -21 -14 -40 -5 -24 -4 -31 4 -26 7 4 12 12 12 17 0 5 8 21 17 36 10 14 18
34 20 44 4 23 -38 65 -60 61 -10 -2 -17 3 -17 13 0 9 4 14 8 11 4 -2 14 -1 22
4 9 5 19 5 27 -2 8 -6 27 -7 50 -3 l38 8 -28 8 c-16 4 -35 13 -43 20 -10 8
-14 8 -14 0 0 -6 -9 -11 -20 -11 -25 0 -27 20 -2 21 16 0 16 1 -1 8 -10 4 -18
11 -17 16 1 5 -3 11 -9 13 -6 2 -11 -1 -11 -7 0 -6 -5 -11 -11 -11 -6 0 -9 9
-6 19 4 18 -25 81 -38 81 -3 0 -2 -12 1 -27z"/>
<path d="M1186 2305 c4 -8 8 -15 10 -15 2 0 4 7 4 15 0 8 -4 15 -10 15 -5 0
-7 -7 -4 -15z"/>
<path d="M3393 2260 c0 -36 2 -50 4 -32 2 17 2 47 0 65 -2 17 -4 3 -4 -33z"/>
<path d="M1477 2232 c-17 -18 -25 -35 -22 -44 8 -19 -25 -33 -55 -23 -11 3
-20 3 -20 -2 0 -16 46 -97 73 -127 32 -36 33 -42 8 -49 -15 -3 -18 -1 -14 11
5 12 2 14 -11 9 -20 -8 -63 12 -91 43 -11 12 -28 26 -39 32 -17 9 -18 7 -12
-26 5 -27 4 -36 -7 -36 -16 0 -58 58 -77 107 -7 18 -17 30 -22 27 -6 -4 -5
-10 3 -15 8 -5 10 -9 6 -9 -4 0 -3 -10 4 -21 8 -15 8 -19 0 -15 -6 4 -11 0
-11 -8 0 -9 8 -16 18 -17 14 0 14 -2 -3 -9 -11 -5 -14 -9 -7 -9 23 -2 12 -29
-23 -57 -22 -17 -33 -34 -30 -42 6 -16 -21 -52 -38 -52 -5 0 -15 -7 -22 -16
-9 -13 -16 -14 -30 -7 -15 9 -23 5 -44 -20 -14 -17 -25 -34 -24 -38 2 -4 -6
-11 -17 -14 -11 -4 -20 -13 -20 -21 0 -10 -6 -13 -19 -9 -14 4 -21 -2 -30 -27
-25 -67 -36 -83 -63 -86 -36 -4 -68 14 -68 38 0 11 -4 20 -10 20 -14 0 -13
-46 2 -86 10 -30 13 -31 42 -23 17 5 39 19 48 31 24 32 28 20 11 -34 -13 -45
-16 -48 -48 -48 -20 0 -35 5 -35 12 0 6 -2 9 -5 7 -13 -14 12 -49 49 -68 23
-12 49 -33 57 -45 16 -28 92 -110 110 -121 17 -11 4 9 -47 72 -44 54 -59 86
-49 103 12 19 34 10 50 -20 40 -77 169 -170 198 -141 5 5 -4 9 -19 9 -32 0
-91 60 -148 152 -32 53 -34 58 -31 139 l3 84 84 45 c95 51 198 122 225 154 15
20 27 23 78 22 33 0 77 -6 98 -13 21 -7 44 -11 51 -8 14 5 23 -10 46 -71 9
-24 16 -30 24 -22 8 8 7 13 -2 19 -8 4 -13 14 -12 22 4 28 0 50 -9 45 -5 -3
-11 8 -13 25 -4 26 -2 30 14 26 10 -3 18 -1 18 3 0 5 3 16 7 26 5 13 3 16 -10
11 -26 -10 -31 32 -13 121 20 97 20 110 4 94 -17 -17 -31 -15 -24 3 9 24 -8
18 -37 -13z m18 -21 c-3 -6 -11 -8 -17 -5 -6 4 -5 9 3 15 16 10 23 4 14 -10z
m20 -181 c3 -5 1 -10 -4 -10 -6 0 -11 5 -11 10 0 6 2 10 4 10 3 0 8 -4 11 -10z
m-325 -70 c0 -5 -7 -10 -16 -10 -8 0 -12 5 -9 10 3 6 10 10 16 10 5 0 9 -4 9
-10z"/>
<path d="M1640 2039 c0 -5 7 -9 15 -9 8 0 26 -25 41 -55 20 -43 34 -59 62 -70
19 -9 39 -14 44 -13 17 6 -100 135 -131 146 -19 7 -31 7 -31 1z"/>
<path d="M1580 2024 c0 -8 5 -12 10 -9 6 4 8 11 5 16 -9 14 -15 11 -15 -7z"/>
<path d="M965 1994 c-15 -19 -25 -37 -24 -39 2 -2 17 14 32 36 35 49 29 52 -8
3z"/>
<path d="M1085 1943 c-32 -8 -57 -35 -45 -47 8 -8 16 -5 26 9 8 11 22 19 30
17 8 -2 14 2 14 8 0 6 5 8 10 5 6 -3 10 -1 10 4 0 11 -11 12 -45 4z"/>
<path d="M1688 1878 c6 -6 21 -15 33 -22 27 -13 42 -58 35 -103 -3 -18 -1 -33
5 -33 5 0 7 -15 6 -32 -2 -18 3 -37 10 -43 9 -8 10 -21 2 -55 -5 -24 -9 -56
-8 -70 1 -14 -3 -38 -10 -53 -6 -16 -11 -35 -11 -44 0 -13 3 -13 15 -3 13 11
15 6 16 -36 1 -163 15 -284 30 -284 7 0 9 20 5 58 -14 118 -7 442 13 599 8 71
3 86 -36 101 -46 19 -117 32 -105 20z"/>
<path d="M2800 1840 c11 -20 30 -28 30 -12 0 11 -22 32 -32 32 -5 0 -4 -9 2
-20z"/>
<path d="M1550 1819 c0 -28 75 -229 85 -229 9 0 -7 52 -26 90 -10 19 -23 58
-30 85 -12 51 -29 82 -29 54z"/>
<path d="M2828 1782 c-2 -18 -1 -32 3 -32 15 0 19 18 10 41 -8 22 -8 22 -13
-9z"/>
<path d="M2902 1758 c-7 -7 -12 -16 -12 -21 0 -18 -35 -35 -61 -30 -20 4 -29
-1 -42 -21 -10 -15 -23 -23 -31 -20 -16 6 -36 -24 -36 -55 0 -30 27 -26 34 5
8 31 58 54 116 54 26 0 43 5 46 14 3 8 21 17 40 20 33 7 45 28 24 41 -5 3 -10
2 -10 -3 0 -12 -47 -25 -61 -16 -6 4 -6 11 2 20 15 18 7 28 -9 12z"/>
<path d="M1957 1609 c20 -35 34 -50 89 -99 78 -70 77 -63 -5 33 -84 97 -118
124 -84 66z"/>
<path d="M2941 1599 c-1 -20 58 -99 73 -99 13 0 5 18 -21 48 -16 17 -33 39
-40 49 -10 15 -12 16 -12 2z"/>
<path d="M2829 1527 c6 -8 8 -17 4 -20 -3 -4 -1 -7 5 -7 7 0 12 9 12 20 0 12
-7 20 -16 20 -13 0 -14 -3 -5 -13z"/>
<path d="M1670 1393 c1 -4 7 -19 15 -33 11 -20 14 -21 15 -7 0 10 -7 25 -15
33 -8 9 -15 12 -15 7z"/>
<path d="M1230 1323 c0 -40 28 -59 56 -38 19 13 19 14 -1 21 -11 5 -28 17 -37
29 -17 20 -17 20 -18 -12z"/>
<path d="M3150 1283 c8 -3 30 -12 48 -19 17 -7 32 -11 32 -9 0 9 -60 35 -77
34 -14 0 -15 -2 -3 -6z"/>
<path d="M3078 1273 c7 -3 16 -2 19 1 4 3 -2 6 -13 5 -11 0 -14 -3 -6 -6z"/>
<path d="M1166 1261 c-7 -10 54 -34 63 -26 3 3 -5 8 -17 12 -12 3 -22 9 -22
14 0 12 -17 12 -24 0z"/>
<path d="M3085 1251 c-3 -5 -1 -12 4 -15 5 -4 8 -14 6 -24 -2 -9 -4 -26 -5
-37 -1 -19 -1 -19 -14 -2 -13 17 -14 17 -20 0 -4 -10 -2 -19 4 -21 7 -3 7 -9
-2 -20 -11 -14 -10 -15 12 -8 68 20 95 24 148 19 42 -4 72 0 114 15 31 11 59
17 62 14 3 -3 6 5 6 17 0 23 -1 23 -25 7 -14 -9 -25 -13 -25 -8 0 4 -18 6 -40
4 -22 -2 -37 -8 -34 -13 7 -12 -8 -11 -39 0 -13 5 -27 16 -30 25 -4 11 -1 13
10 9 11 -4 14 -2 9 5 -4 7 -13 12 -20 12 -8 0 -19 7 -26 15 -14 16 -85 21 -95
6z"/>
<path d="M1366 1216 c5 -12 0 -16 -23 -16 -16 0 -34 5 -40 11 -7 7 -13 7 -17
1 -3 -6 8 -18 25 -26 36 -18 63 -21 54 -6 -3 6 1 7 9 4 21 -8 21 19 1 36 -13
11 -14 10 -9 -4z"/>
<path d="M1742 1205 c0 -16 2 -22 5 -12 2 9 2 23 0 30 -3 6 -5 -1 -5 -18z"/>
<path d="M1700 1200 c0 -11 4 -20 9 -20 5 0 7 9 4 20 -3 11 -7 20 -9 20 -2 0
-4 -9 -4 -20z"/>
<path d="M2650 1198 c14 -5 39 -16 55 -23 50 -22 77 -25 92 -9 13 12 11 14 -9
15 -32 2 -57 6 -103 18 -50 13 -68 13 -35 -1z"/>
<path d="M2990 1190 c0 -5 9 -14 20 -20 19 -10 20 -10 8 9 -13 22 -28 28 -28
11z"/>
<path d="M1513 1164 c0 -23 1 -24 9 -10 7 12 7 21 0 28 -6 6 -9 0 -9 -18z"/>
<path d="M1408 1163 c7 -3 16 -2 19 1 4 3 -2 6 -13 5 -11 0 -14 -3 -6 -6z"/>
<path d="M1446 1162 c-8 -13 36 -24 48 -12 7 7 6 10 -1 10 -6 0 -18 3 -26 6
-8 3 -18 1 -21 -4z"/>
<path d="M2839 1153 c-22 -3 -25 -8 -21 -29 5 -28 14 -30 32 -9 7 8 20 15 29
16 10 0 12 2 3 6 -6 2 -10 9 -6 14 3 5 2 8 -3 8 -4 -1 -20 -4 -34 -6z"/>
<path d="M2938 1133 c7 -3 16 -2 19 1 4 3 -2 6 -13 5 -11 0 -14 -3 -6 -6z"/>
<path d="M2645 1090 c-3 -5 -1 -10 4 -10 6 0 11 5 11 10 0 6 -2 10 -4 10 -3 0
-8 -4 -11 -10z"/>
<path d="M2788 1083 c-10 -2 -18 -8 -18 -13 0 -4 9 -6 20 -3 11 3 20 9 20 14
0 5 -1 8 -2 8 -2 -1 -11 -3 -20 -6z"/>
<path d="M1810 1066 c0 -8 5 -18 10 -21 6 -3 10 3 10 14 0 12 -4 21 -10 21 -5
0 -10 -6 -10 -14z"/>
<path d="M1831 1014 c0 -11 3 -14 6 -6 3 7 2 16 -1 19 -3 4 -6 -2 -5 -13z"/>
<path d="M2759 1003 c-1 -5 0 -18 1 -30 2 -29 -17 -63 -36 -63 -8 0 -26 -8
-40 -17 -37 -24 -179 -31 -187 -10 -3 9 1 21 9 27 21 18 18 39 -6 33 -11 -3
-20 -11 -20 -18 0 -12 -78 -55 -99 -55 -6 0 -12 -3 -14 -8 -9 -13 388 -1 426
14 9 3 17 12 17 20 0 8 6 11 15 8 9 -4 18 1 21 10 8 21 -22 45 -48 38 -15 -3
-18 2 -18 27 0 17 -4 31 -10 31 -5 0 -10 -3 -11 -7z"/>
<path d="M1669 905 c-9 -19 -11 -31 -5 -29 18 7 38 46 29 54 -4 5 -15 -7 -24
-25z"/>
<path d="M1761 917 c-26 -12 -46 -63 -30 -73 5 -3 13 6 19 20 5 14 16 26 24
26 19 0 31 19 20 30 -5 5 -20 4 -33 -3z"/>
<path d="M3401 854 c0 -11 3 -14 6 -6 3 7 2 16 -1 19 -3 4 -6 -2 -5 -13z"/>
<path d="M1757 763 c-5 -7 -19 -13 -33 -13 -20 0 -24 -4 -19 -19 4 -14 -4 -27
-31 -49 l-37 -30 62 5 c50 5 65 2 81 -12 11 -10 24 -14 32 -9 20 13 38 13 35
1 -3 -19 71 -13 99 8 17 13 14 14 -36 13 -64 -1 -100 8 -100 26 0 7 -9 21 -19
30 -11 10 -21 28 -23 40 -2 15 -5 17 -11 9z"/>
<path d="M2870 750 c0 -5 9 -10 20 -10 11 0 20 5 20 10 0 6 -9 10 -20 10 -11
0 -20 -4 -20 -10z"/>
<path d="M3403 700 c0 -36 2 -50 4 -32 2 17 2 47 0 65 -2 17 -4 3 -4 -33z"/>
<path d="M2948 743 c7 -3 16 -2 19 1 4 3 -2 6 -13 5 -11 0 -14 -3 -6 -6z"/>
<path d="M2113 650 c-12 -9 -20 -20 -17 -22 9 -10 54 5 54 18 0 21 -14 23 -37
4z"/>
<path d="M2418 663 c7 -3 16 -2 19 1 4 3 -2 6 -13 5 -11 0 -14 -3 -6 -6z"/>
<path d="M1811 612 c-14 -26 -7 -42 10 -25 6 6 9 19 7 29 -3 17 -5 17 -17 -4z"/>
<path d="M3402 610 c0 -14 2 -19 5 -12 2 6 2 18 0 25 -3 6 -5 1 -5 -13z"/>
<path d="M975 600 c20 -23 29 -21 19 4 -3 9 -13 16 -22 16 -13 0 -12 -3 3 -20z"/>
<path d="M1402 580 c-19 -5 -39 -13 -45 -20 -9 -10 -7 -12 11 -7 13 3 28 -1
36 -9 10 -10 30 -12 67 -9 29 3 55 7 57 10 10 10 -8 18 -40 17 -17 0 -36 5
-42 12 -8 9 -21 11 -44 6z"/>
<path d="M3403 525 c0 -27 2 -38 4 -22 2 15 2 37 0 50 -2 12 -4 0 -4 -28z"/>
<path d="M1608 553 c7 -3 16 -2 19 1 4 3 -2 6 -13 5 -11 0 -14 -3 -6 -6z"/>
<path d="M2030 545 c-14 -8 -33 -14 -42 -15 -19 0 -26 -20 -7 -20 18 0 79 32
79 41 0 11 0 11 -30 -6z"/>
<path d="M1378 533 c7 -3 16 -2 19 1 4 3 -2 6 -13 5 -11 0 -14 -3 -6 -6z"/>
<path d="M2387 533 c-13 -13 -7 -20 18 -20 14 0 25 0 23 1 -2 1 -10 7 -19 14
-9 6 -19 9 -22 5z"/>
<path d="M2426 471 c-4 -7 -5 -15 -2 -18 9 -9 19 4 14 18 -4 11 -6 11 -12 0z"/>
<path d="M70 257 c0 -214 -1 -210 60 -198 22 5 21 6 -10 11 l-35 5 -2 184 c-1
101 -5 186 -8 189 -3 3 -5 -83 -5 -191z"/>
<path d="M3401 424 c0 -11 3 -14 6 -6 3 7 2 16 -1 19 -3 4 -6 -2 -5 -13z"/>
<path d="M2658 354 c-13 -28 -13 -34 -2 -34 8 0 19 8 25 18 10 15 21 18 60 14
30 -3 49 -1 49 6 0 11 -69 27 -77 18 -3 -3 -13 -1 -23 4 -13 7 -20 2 -32 -26z"/>
<path d="M3402 365 c0 -16 2 -22 5 -12 2 9 2 23 0 30 -3 6 -5 -1 -5 -18z"/>
<path d="M2818 363 c7 -3 16 -2 19 1 4 3 -2 6 -13 5 -11 0 -14 -3 -6 -6z"/>
<path d="M3401 274 c0 -11 3 -14 6 -6 3 7 2 16 -1 19 -3 4 -6 -2 -5 -13z"/>
<path d="M1208 193 c6 -2 18 -2 25 0 6 3 1 5 -13 5 -14 0 -19 -2 -12 -5z"/>
<path d="M3393 105 c-9 -20 -8 -25 3 -25 8 0 14 10 14 25 0 31 -2 31 -17 0z"/>
</g>
</svg>
